<svg width="21" height="20" viewBox="0 0 21 20" fill="none" xmlns="http://www.w3.org/2000/svg">
<path fill-rule="evenodd" clip-rule="evenodd" d="M1.70661 9.07248C1.25694 8.28446 1 7.37223 1 6.4C1 3.41766 3.41766 1 6.4 1C8.09638 1 9.61006 1.78222 10.6 3.00565C11.59 1.78222 13.1037 1 14.8001 1C17.7824 1 20.2001 3.41766 20.2001 6.4C20.2001 7.37198 19.9433 8.28399 19.4938 9.07186C17.5838 13.1016 11.6057 19.0012 10.6001 19.0012C9.59446 19.0012 3.61689 13.1022 1.70661 9.07248Z" fill="#FF4B4B"/>
<path d="M1.70661 9.07248L2.15842 8.8583L2.15029 8.84115L2.14088 8.82466L1.70661 9.07248ZM10.6 3.00565L10.2113 3.32017L10.6 3.80052L10.9887 3.32017L10.6 3.00565ZM19.4938 9.07186L19.0595 8.82411L19.0501 8.84058L19.042 8.85772L19.4938 9.07186ZM2.14088 8.82466C1.73314 8.11014 1.5 7.28305 1.5 6.4H0.5C0.5 7.46141 0.780731 8.45878 1.27234 9.32029L2.14088 8.82466ZM1.5 6.4C1.5 3.6938 3.6938 1.5 6.4 1.5V0.5C3.14152 0.5 0.5 3.14152 0.5 6.4H1.5ZM6.4 1.5C7.9391 1.5 9.31223 2.20902 10.2113 3.32017L10.9887 2.69113C9.9079 1.35543 8.25366 0.5 6.4 0.5V1.5ZM10.9887 3.32017C11.8878 2.20902 13.261 1.5 14.8001 1.5V0.5C12.9464 0.5 11.2922 1.35543 10.2113 2.69113L10.9887 3.32017ZM14.8001 1.5C17.5063 1.5 19.7001 3.6938 19.7001 6.4H20.7001C20.7001 3.14152 18.0585 0.5 14.8001 0.5V1.5ZM19.7001 6.4C19.7001 7.28282 19.467 8.10971 19.0595 8.82411L19.9281 9.31962C20.4195 8.45826 20.7001 7.46114 20.7001 6.4H19.7001ZM19.042 8.85772C18.121 10.8008 16.1923 13.2375 14.3434 15.2053C13.4234 16.1845 12.5364 17.0336 11.8234 17.6339C11.4658 17.9349 11.1606 18.1661 10.9224 18.3191C10.803 18.3958 10.7097 18.4468 10.6417 18.477C10.5631 18.5119 10.5577 18.5012 10.6001 18.5012V19.5012C10.7681 19.5012 10.9273 19.4444 11.0477 19.3909C11.1786 19.3327 11.3188 19.253 11.4628 19.1605C11.7515 18.9751 12.0933 18.7139 12.4674 18.3989C13.2178 17.7671 14.1332 16.8894 15.0722 15.89C16.9413 13.9006 18.9566 11.3727 19.9456 9.28601L19.042 8.85772ZM10.6001 18.5012C10.6424 18.5012 10.637 18.5119 10.5584 18.477C10.4904 18.4468 10.3972 18.3958 10.2777 18.3191C10.0396 18.1662 9.73442 17.935 9.37688 17.634C8.66386 17.0337 7.77693 16.1847 6.85698 15.2056C5.00825 13.238 3.07954 10.8014 2.15842 8.8583L1.25481 9.28665C2.24396 11.3733 4.25917 13.9011 6.12819 15.8903C7.06712 16.8897 7.98253 17.7673 8.73283 18.399C9.10695 18.714 9.4487 18.9751 9.73737 19.1605C9.88137 19.253 10.0215 19.3327 10.1525 19.3909C10.2729 19.4444 10.432 19.5012 10.6001 19.5012V18.5012Z" fill="#FF4B4B"/>
</svg>
