<svg width="24" height="24" viewBox="0 0 24 24" fill="none" xmlns="http://www.w3.org/2000/svg">
<g id="Group 194">
<path id="Union" d="M3.10658 11.0725L3.55838 10.8583L3.55025 10.8411L3.54085 10.8247L3.10658 11.0725ZM12 5.00565L11.6113 5.32017L12 5.80052L12.3887 5.32017L12 5.00565ZM20.8938 11.0719L20.4595 10.8241L20.4501 10.8406L20.4419 10.8577L20.8938 11.0719ZM3.54085 10.8247C3.13311 10.1101 2.89996 9.28305 2.89996 8.4H1.89996C1.89996 9.46141 2.18069 10.4588 2.67231 11.3203L3.54085 10.8247ZM2.89996 8.4C2.89996 5.6938 5.09377 3.5 7.79996 3.5V2.5C4.54148 2.5 1.89996 5.14152 1.89996 8.4H2.89996ZM7.79996 3.5C9.33906 3.5 10.7122 4.20902 11.6113 5.32017L12.3887 4.69113C11.3079 3.35543 9.65362 2.5 7.79996 2.5V3.5ZM12.3887 5.32017C13.2878 4.20902 14.6609 3.5 16.2 3.5V2.5C14.3464 2.5 12.6921 3.35543 11.6113 4.69113L12.3887 5.32017ZM16.2 3.5C18.9062 3.5 21.1 5.6938 21.1 8.4H22.1C22.1 5.14152 19.4585 2.5 16.2 2.5V3.5ZM21.1 8.4C21.1 9.28282 20.867 10.1097 20.4595 10.8241L21.3281 11.3196C21.8194 10.4583 22.1 9.46114 22.1 8.4H21.1ZM20.4419 10.8577C19.521 12.8008 17.5922 15.2375 15.7434 17.2053C14.8234 18.1845 13.9364 19.0336 13.2233 19.6339C12.8658 19.9349 12.5606 20.1661 12.3224 20.3191C12.203 20.3958 12.1097 20.4468 12.0417 20.477C11.9631 20.5119 11.9577 20.5012 12 20.5012V21.5012C12.1681 21.5012 12.3272 21.4444 12.4476 21.3909C12.5786 21.3327 12.7188 21.253 12.8628 21.1605C13.1515 20.9751 13.4932 20.7139 13.8674 20.3989C14.6177 19.7671 15.5332 18.8894 16.4722 17.89C18.3413 15.9006 20.3566 13.3727 21.3456 11.286L20.4419 10.8577ZM12 20.5012C12.0424 20.5012 12.037 20.5119 11.9584 20.477C11.8904 20.4468 11.7971 20.3958 11.6777 20.3191C11.4395 20.1662 11.1344 19.935 10.7768 19.634C10.0638 19.0337 9.17689 18.1847 8.25695 17.2056C6.40821 15.238 4.47951 12.8014 3.55838 10.8583L2.65477 11.2867C3.64392 13.3733 5.65913 15.9011 7.52816 17.8903C8.46709 18.8897 9.38249 19.7673 10.1328 20.399C10.5069 20.714 10.8487 20.9751 11.1373 21.1605C11.2813 21.253 11.4215 21.3327 11.5525 21.3909C11.6728 21.4444 11.832 21.5012 12 21.5012V20.5012Z" fill="#777777"/>
</g>
</svg>
